<svg version="1.1" id="Layer_1" xmlns="http://www.w3.org/2000/svg" xmlns:xlink="http://www.w3.org/1999/xlink" x="0px" y="0px"
	 width="100%" viewBox="0 0 1024 1024" enable-background="new 0 0 1024 1024" xml:space="preserve">
<path fill="#000000" opacity="1.000000" stroke="none" 
	d="
M499.683563,467.138489 
	C513.065002,465.167999 524.640503,468.122406 534.221558,477.266785 
	C537.100098,480.014069 538.923035,479.468811 541.705750,477.056366 
	C558.991821,462.070648 582.436523,462.996246 597.863892,479.138245 
	C604.751831,486.345306 607.939514,495.197540 608.086975,505.001312 
	C608.342529,521.990845 608.152954,538.986816 608.354370,555.977722 
	C608.404053,560.166077 606.790955,561.462219 602.756958,561.371643 
	C586.136047,560.998230 589.046875,563.572693 588.845520,547.904846 
	C588.667847,534.079163 588.779053,520.250061 588.710144,506.422729 
	C588.648926,494.145386 580.316345,485.366852 568.775085,485.330658 
	C556.662048,485.292633 548.317078,493.625641 548.198059,506.256287 
	C548.047302,522.247986 548.153687,538.242065 548.132080,554.235168 
	C548.122559,561.281677 548.103394,561.281738 541.329529,561.323914 
	C528.622375,561.403137 528.620850,561.403076 528.620544,548.732971 
	C528.620239,534.905396 528.803528,521.074768 528.575562,507.250977 
	C528.331848,492.469635 517.246216,483.557648 502.912231,486.253387 
	C493.862061,487.955414 487.366302,495.862762 487.317566,505.586761 
	C487.235748,521.912903 487.319641,538.239746 487.305206,554.566284 
	C487.299164,561.387451 487.264282,561.478516 480.297333,561.360107 
	C466.575958,561.126953 467.794525,563.741028 467.735199,548.915710 
	C467.677887,534.588867 467.563934,520.257263 467.852814,505.935364 
	C468.246887,486.398712 480.367737,471.685822 499.683563,467.138489 
z"/>
<path fill="#000000" opacity="1.000000" stroke="none" 
	d="
M299.357880,523.458252 
	C292.761475,523.469055 286.634369,523.469055 279.710785,523.469055 
	C282.210663,532.068237 286.876740,537.547546 293.794983,541.071899 
	C305.307892,546.936829 317.532959,545.213989 327.066772,536.412964 
	C329.039490,534.591858 331.022491,533.532166 333.720367,533.679749 
	C339.275085,533.983826 344.895050,533.179199 351.149048,534.278809 
	C347.404114,543.338135 341.410553,549.671570 334.131805,554.708435 
	C305.692719,574.388245 265.934937,557.745605 260.069427,523.676086 
	C259.260132,518.975220 259.763275,514.040894 259.741028,509.214325 
	C259.723541,505.418427 262.562103,505.726624 265.060608,505.725494 
	C283.889374,505.716949 302.718140,505.732941 321.546906,505.740509 
	C325.676422,505.742157 329.805939,505.740723 333.943054,505.740723 
	C334.897644,502.396637 333.192749,500.376343 331.920502,498.369720 
	C322.510162,483.527222 301.435638,480.369598 288.394897,492.208710 
	C285.047089,495.248077 281.816986,496.258179 277.658813,495.963837 
	C273.404297,495.662659 269.076935,496.371124 264.657623,495.368591 
	C264.475494,492.317719 266.109497,490.324066 267.364319,488.276306 
	C284.599060,460.151276 325.157593,458.539764 345.467651,485.184296 
	C353.113831,495.215179 356.985779,506.371307 355.674683,519.191772 
	C355.261108,523.235718 353.311737,524.046326 349.798920,523.992188 
	C333.142853,523.735046 316.484650,523.615784 299.357880,523.458252 
z"/>
<path fill="#000000" opacity="1.000000" stroke="none" 
	d="
M378.203003,479.195435 
	C392.764648,466.618073 409.158875,462.813995 426.845245,469.231628 
	C444.555328,475.657867 455.466095,488.679291 458.758636,507.582520 
	C462.897614,531.345337 443.916992,557.126160 419.289215,561.172485 
	C393.397888,565.426331 368.890533,548.677551 364.203278,522.885376 
	C361.176727,506.231812 366.077026,491.617737 378.203003,479.195435 
M432.567780,494.929626 
	C429.448212,491.568359 425.630280,489.192169 421.398254,487.606628 
	C410.701263,483.598907 400.737213,485.042023 392.033142,492.546234 
	C383.459045,499.938263 380.609161,509.530518 382.922913,520.456421 
	C385.340118,531.870911 395.589539,541.210022 406.600281,542.633179 
	C418.943817,544.228516 430.408600,538.620728 436.545685,527.985901 
	C442.339264,517.946411 440.969604,505.246521 432.567780,494.929626 
z"/>
<path fill="#000000" opacity="1.000000" stroke="none" 
	d="
M621.759460,540.999634 
	C621.745483,503.173950 621.731079,465.848145 621.720886,428.522339 
	C621.719055,421.844543 621.727783,421.758453 628.339966,421.800476 
	C642.569824,421.890900 641.138550,419.580261 641.153198,434.426605 
	C641.192688,474.418457 641.198975,514.410339 641.208923,554.402161 
	C641.210632,561.322083 641.189270,561.322083 634.334839,561.330322 
	C621.789612,561.345398 621.790283,561.345398 621.778931,548.998108 
	C621.776672,546.498596 621.766785,543.999023 621.759460,540.999634 
z"/>
<path fill="#000000" opacity="1.000000" stroke="none" 
	d="
M245.378525,507.000153 
	C245.485031,515.151733 245.275665,522.824585 245.785965,530.449158 
	C246.312775,538.320190 250.602921,543.348511 258.653320,544.758301 
	C259.587250,544.921875 260.461395,545.427002 261.582855,545.858154 
	C260.985321,551.397095 258.580658,556.149109 256.366577,560.915283 
	C255.128784,563.579895 252.539780,562.407532 250.572281,561.993835 
	C237.082809,559.157715 226.894135,546.998108 226.780411,532.403931 
	C226.505341,497.108856 226.706345,461.810211 226.620224,426.513245 
	C226.611740,423.036957 227.978165,421.784760 231.339508,421.804901 
	C248.429764,421.907379 245.167450,419.702759 245.316147,435.073883 
	C245.546432,458.880615 245.378082,482.691223 245.378525,507.000153 
z"/>
<path fill="#000000" opacity="1.000000" stroke="none" 
	d="
M700.987671,508.994751 
	C693.676514,517.867004 692.768555,527.347961 697.304504,537.272766 
	C702.166992,547.912292 711.003845,553.617981 722.355286,554.592834 
	C745.036560,556.540771 763.310852,539.312256 763.780151,516.451904 
	C763.996033,505.933563 763.169250,495.914673 756.576355,487.035797 
	C743.806091,469.837555 716.824646,468.214203 702.785217,484.382172 
	C699.290283,488.406982 696.817749,487.873291 693.040894,485.018341 
	C698.510864,475.426880 706.771729,469.560120 717.070374,466.892151 
	C744.865295,459.691528 772.401184,480.289764 771.702332,509.564850 
	C771.320740,525.549866 771.454590,541.547119 771.343445,557.538757 
	C771.336609,558.518860 771.219116,559.498169 771.157532,560.413269 
	C764.910095,562.272400 763.833008,561.549805 763.753113,555.501404 
	C763.705200,551.872620 763.744324,548.242737 763.744324,544.646790 
	C761.822021,544.281555 761.383911,545.628906 760.686279,546.409424 
	C748.288879,560.277039 733.130127,565.660950 714.866638,561.213867 
	C694.054810,556.146301 681.928955,534.120361 688.886169,514.228333 
	C692.532043,503.803986 703.251709,495.700958 714.160950,495.019165 
	C716.304565,494.885193 717.824158,495.379089 718.105469,497.714111 
	C718.386780,500.048676 718.131958,501.962769 715.111877,502.426971 
	C709.930420,503.223358 705.119690,505.002197 700.987671,508.994751 
z"/>
<path fill="#000000" opacity="1.000000" stroke="none" 
	d="
M444.050720,560.112427 
	C448.380737,557.272583 451.542236,553.588989 455.878174,549.769470 
	C457.376831,558.526672 457.024536,566.483826 455.733582,574.154236 
	C452.051544,596.031677 435.814362,611.190979 414.871582,613.193115 
	C394.501678,615.140503 374.576324,602.198242 366.915924,581.994629 
	C366.106018,579.858643 365.107819,577.675110 366.208649,575.009705 
	C371.569214,574.208923 377.037781,574.725220 382.485443,574.699341 
	C385.687531,574.684143 385.784210,577.598389 386.790771,579.507080 
	C391.863251,589.126343 400.144592,594.045471 410.634125,594.220764 
	C420.994995,594.393982 429.225037,589.679382 434.263855,580.214050 
	C435.689423,577.536133 436.788757,574.733154 436.799622,571.680359 
	C436.818329,566.436523 438.539703,562.337158 444.050720,560.112427 
z"/>
<path fill="#000000" opacity="1.000000" stroke="none" 
	d="
M797.845276,468.770813 
	C798.086182,498.474365 798.150574,527.773315 798.241455,557.072205 
	C798.250061,559.836243 797.410889,561.445374 794.228821,561.385559 
	C791.209106,561.328735 790.675354,559.687927 790.677368,557.204102 
	C790.700439,528.733398 790.660522,500.262665 790.722595,471.792114 
	C790.732788,467.096375 792.479187,466.333160 797.845276,468.770813 
z"/>
<path fill="#000000" opacity="1.000000" stroke="none" 
	d="
M672.083008,541.809692 
	C676.224365,545.996155 677.653076,550.550537 674.976929,555.613892 
	C672.563782,560.179626 668.511780,562.072205 663.339233,561.422424 
	C658.479736,560.811890 655.608276,557.838440 654.227539,553.392273 
	C652.788086,548.757080 654.364136,544.765930 657.943604,541.823242 
	C662.344604,538.205200 667.106201,538.631287 672.083008,541.809692 
z"/>
<path fill="#000000" opacity="1.000000" stroke="none" 
	d="
M799.059326,448.841888 
	C795.885376,452.362671 792.448120,453.895782 788.102478,452.331573 
	C784.739807,451.121185 782.423401,448.918243 781.755066,445.298279 
	C780.880493,440.561310 782.846130,436.299713 786.922485,434.458099 
	C791.113647,432.564606 795.092407,433.129547 798.439087,436.347107 
	C801.939819,439.712616 802.132812,443.603729 799.059326,448.841888 
z"/>
</svg>